<svg aria-hidden="true" style="position: absolute; width: 0; height: 0; overflow: hidden;" version="1.1" xmlns="http://www.w3.org/2000/svg" xmlns:xlink="http://www.w3.org/1999/xlink">
<defs>
<symbol id="icon-user" viewBox="0 0 32 32">
<path d="M20 30.32h-8c-1.76 0-3.227-0.173-4.467-0.547-0.453-0.133-0.747-0.573-0.72-1.040 0.333-3.987 4.373-7.12 9.187-7.12s8.84 3.12 9.187 7.12c0.040 0.48-0.253 0.907-0.72 1.040-1.24 0.373-2.707 0.547-4.467 0.547zM8.96 28.067c0.88 0.173 1.88 0.253 3.040 0.253h8c1.16 0 2.16-0.080 3.040-0.253-0.707-2.56-3.627-4.453-7.040-4.453s-6.333 1.893-7.040 4.453z"></path>
<path fill="none" stroke-linejoin="round" stroke-linecap="butt" stroke-miterlimit="4" stroke-width="2" d="M12 2.667c-6.667 0-9.333 2.667-9.333 9.333v8c0 5.040 1.52 7.8 5.133 8.827 0.307-3.467 3.867-6.213 8.2-6.213s7.893 2.747 8.187 6.213c3.627-1.027 5.147-3.787 5.147-8.827v-8c0-6.667-2.667-9.333-9.333-9.333h-8zM11.213 14.107c0-2.64 2.147-4.773 4.787-4.773s4.773 2.133 4.773 4.773c0 2.64-2.133 4.787-4.773 4.787s-4.787-2.147-4.787-4.787z"></path>
<path d="M15.987 19.893c-3.187 0-5.773-2.6-5.773-5.787s2.587-5.773 5.773-5.773c3.187 0 5.773 2.587 5.773 5.773s-2.587 5.787-5.773 5.787zM15.987 10.333c-2.080 0-3.773 1.693-3.773 3.773 0 2.093 1.693 3.787 3.773 3.787s3.773-1.693 3.773-3.787c0-2.080-1.693-3.773-3.773-3.773z"></path>
</symbol>
<symbol id="icon-message" viewBox="0 0 32 32">
<path d="M10.667 29.747c-0.387 0-0.773-0.093-1.12-0.28-0.76-0.4-1.213-1.2-1.213-2.053v-1.88c-4.040-0.413-6.667-3.387-6.667-7.627v-8c0-4.587 3.080-7.667 7.667-7.667h13.333c4.587 0 7.667 3.080 7.667 7.667v8c0 4.587-3.080 7.667-7.667 7.667h-5.027l-5.693 3.8c-0.387 0.253-0.827 0.373-1.28 0.373zM9.333 4.227c-3.453 0-5.667 2.227-5.667 5.667v8.013c0 3.44 2.213 5.667 5.667 5.667 0.533 0 1 0.453 1 1v2.84c0 0.173 0.107 0.253 0.173 0.293 0.053 0.040 0.2 0.080 0.347-0.013l5.933-3.947c0.16-0.107 0.36-0.173 0.56-0.173h5.333c3.44 0 5.667-2.227 5.667-5.667v-8.013c0-3.44-2.227-5.667-5.667-5.667h-13.347z"></path>
<path d="M15.987 16.133c-0.547 0-1-0.453-1-1v-0.28c0-1.547 1.133-2.307 1.56-2.6 0.493-0.333 0.653-0.56 0.653-0.907 0-0.667-0.547-1.213-1.213-1.213s-1.213 0.547-1.213 1.213c0 0.547-0.453 1-1 1s-1-0.453-1-1c0-1.773 1.44-3.213 3.213-3.213s3.213 1.44 3.213 3.213c0 1.52-1.12 2.28-1.533 2.56-0.52 0.347-0.68 0.573-0.68 0.947v0.28c0 0.56-0.453 1-1 1z"></path>
<path d="M16 19.467c-0.56 0-1-0.453-1-1s0.453-1 1-1c0.547 0 1 0.453 1 1s-0.44 1-1 1z"></path>
</symbol>
<symbol id="icon-discount" viewBox="0 0 32 32">
<path d="M16 30.333c-0.84 0-1.627-0.32-2.213-0.92l-2.027-2.027c-0.16-0.16-0.587-0.333-0.813-0.333h-2.867c-1.733 0-3.147-1.4-3.147-3.133v-2.88c0-0.213-0.16-0.64-0.333-0.8l-2.013-2.027c-0.587-0.587-0.92-1.373-0.92-2.213s0.307-1.627 0.92-2.213l2.013-2.027c0.173-0.16 0.333-0.587 0.333-0.8v-2.88c0-1.733 1.413-3.133 3.147-3.133h2.867c0.227 0 0.653-0.173 0.813-0.333l2.027-2.027c1.173-1.173 3.253-1.173 4.427 0l2.027 2.027c0.16 0.16 0.587 0.333 0.8 0.333h2.88c1.733 0 3.133 1.4 3.133 3.133v2.88c0 0.213 0.173 0.64 0.333 0.8l2.027 2.027c0.587 0.587 0.92 1.373 0.92 2.213s-0.32 1.627-0.92 2.213l-2.027 2.027c-0.16 0.16-0.333 0.587-0.333 0.8v2.88c0 1.733-1.4 3.133-3.133 3.133h-2.88c-0.213 0-0.64 0.173-0.8 0.333l-2.027 2.027c-0.587 0.6-1.373 0.92-2.213 0.92zM6.027 18.827c0.52 0.533 0.907 1.467 0.907 2.213v2.88c0 0.627 0.52 1.133 1.147 1.133h2.867c0.76 0 1.68 0.387 2.227 0.92l2.027 2.027c0.427 0.427 1.173 0.427 1.6 0l2.027-2.027c0.533-0.533 1.467-0.92 2.213-0.92h2.88c0.627 0 1.133-0.507 1.133-1.133v-2.88c0-0.747 0.387-1.68 0.92-2.213l2.027-2.027c0.213-0.213 0.333-0.493 0.333-0.8s-0.12-0.587-0.333-0.8l-2.027-2.027c-0.533-0.533-0.92-1.467-0.92-2.213v-2.88c0-0.627-0.507-1.133-1.133-1.133h-2.88c-0.747 0-1.68-0.387-2.213-0.92l-2.027-2.027c-0.427-0.427-1.173-0.427-1.6 0l-2.027 2.027c-0.547 0.533-1.467 0.92-2.227 0.92h-2.867c-0.627 0-1.147 0.507-1.147 1.133v2.88c0 0.747-0.387 1.68-0.907 2.213l-2.027 2.027c-0.213 0.213-0.333 0.493-0.333 0.8s0.12 0.587 0.333 0.8l2.027 2.027z"></path>
<path d="M20 21.333c-0.747 0-1.347-0.6-1.347-1.333s0.6-1.333 1.333-1.333c0.733 0 1.333 0.6 1.333 1.333s-0.587 1.333-1.32 1.333z"></path>
<path d="M12.013 13.333c-0.747 0-1.347-0.6-1.347-1.333s0.6-1.333 1.333-1.333c0.72 0 1.333 0.6 1.333 1.333s-0.587 1.333-1.32 1.333z"></path>
<path d="M11.987 20.987c-0.253 0-0.507-0.093-0.707-0.293-0.387-0.387-0.387-1.027 0-1.413l8-8c0.387-0.387 1.027-0.387 1.413 0s0.387 1.027 0 1.413l-8 8c-0.2 0.2-0.453 0.293-0.707 0.293z"></path>
</symbol>
<symbol id="icon-wallet" viewBox="0 0 32 32">
<path fill="none" stroke-linejoin="round" stroke-linecap="butt" stroke-miterlimit="4" stroke-width="2" d="M14.333 25.187c0 2.293-2.133 4.147-4.76 4.147s-4.773-1.853-4.773-4.147v-2.707c0 2.293 2.133 3.92 4.773 3.92 2.627 0 4.76-1.64 4.76-3.92v2.707z"></path>
<path fill="none" stroke-linejoin="round" stroke-linecap="butt" stroke-miterlimit="4" stroke-width="2" d="M13.827 20.627c-0.787 1.293-2.4 2.093-4.267 2.093s-3.48-0.813-4.267-2.093c-0.32-0.533-0.507-1.147-0.507-1.813 0-1.147 0.533-2.173 1.387-2.92 0.867-0.76 2.053-1.213 3.373-1.213s2.507 0.467 3.373 1.213c0.88 0.733 1.413 1.773 1.413 2.92 0 0.667-0.187 1.28-0.507 1.813z"></path>
<path fill="none" stroke-linejoin="round" stroke-linecap="butt" stroke-miterlimit="4" stroke-width="2" d="M14.333 22.48c0 2.293-2.133 3.907-4.76 3.907s-4.773-1.627-4.773-3.907v-3.667c0-2.293 2.133-4.147 4.773-4.147 1.32 0 2.507 0.467 3.373 1.213 0.853 0.747 1.387 1.787 1.387 2.933v3.667z"></path>
<path fill="none" stroke-linejoin="round" stroke-linecap="butt" stroke-miterlimit="4" stroke-width="2" d="M29.333 17.373c0 0.733-0.587 1.32-1.333 1.347h-2.627c-1.44 0-2.76-1.053-2.88-2.493-0.080-0.84 0.24-1.627 0.8-2.173 0.493-0.507 1.187-0.8 1.933-0.8h2.773c0.747 0.027 1.333 0.627 1.333 1.36v2.76z"></path>
<path fill="none" stroke-linejoin="round" stroke-linecap="round" stroke-miterlimit="4" stroke-width="2" d="M2.667 14v-2.667c0-3.627 2.187-6.16 5.587-6.587 0.347-0.067 0.693-0.080 1.080-0.080h12c0.347 0 0.68 0 1 0.053 3.44 0.4 5.667 2.96 5.667 6.613v1.933h-2.773c-0.747 0-1.427 0.293-1.92 0.8-0.56 0.547-0.88 1.333-0.813 2.173 0.12 1.44 1.44 2.493 2.893 2.493h2.613v1.933c0 4-2.667 6.667-6.667 6.667h-3.333"></path>
</symbol>
<symbol id="icon-square-box" viewBox="0 0 32 32">
<path d="M20 30.333h-8c-7.24 0-10.333-3.093-10.333-10.333v-8c0-7.24 3.093-10.333 10.333-10.333h8c7.24 0 10.333 3.093 10.333 10.333v8c0 7.24-3.093 10.333-10.333 10.333zM12 3.667c-6.147 0-8.333 2.187-8.333 8.333v8c0 6.147 2.187 8.333 8.333 8.333h8c6.147 0 8.333-2.187 8.333-8.333v-8c0-6.147-2.187-8.333-8.333-8.333h-8z"></path>
<path d="M16 17.427c-0.173 0-0.347-0.040-0.507-0.133l-7.067-4.080c-0.48-0.28-0.64-0.893-0.36-1.36 0.28-0.48 0.893-0.64 1.36-0.36l6.56 3.8 6.52-3.773c0.48-0.28 1.093-0.107 1.36 0.36s0.107 1.093-0.36 1.36l-7.013 4.053c-0.147 0.080-0.32 0.133-0.493 0.133z"></path>
<path d="M16 24.693c-0.547 0-1-0.453-1-1v-7.253c0-0.547 0.453-1 1-1s1 0.453 1 1v7.253c0 0.547-0.453 1-1 1z"></path>
<path d="M16 24.987c-0.773 0-1.533-0.173-2.147-0.507l-4.267-2.373c-1.28-0.707-2.267-2.4-2.267-3.867v-4.52c0-1.453 1-3.147 2.267-3.867l4.267-2.373c1.227-0.68 3.067-0.68 4.293 0l4.267 2.373c1.28 0.707 2.267 2.4 2.267 3.867v4.52c0 1.453-1 3.147-2.267 3.867l-4.267 2.373c-0.613 0.347-1.373 0.507-2.147 0.507zM16 8.987c-0.44 0-0.867 0.080-1.173 0.253l-4.267 2.373c-0.653 0.36-1.24 1.373-1.24 2.107v4.52c0 0.747 0.587 1.747 1.24 2.107l4.267 2.373c0.613 0.347 1.733 0.347 2.347 0l4.267-2.373c0.653-0.36 1.24-1.373 1.24-2.107v-4.52c0-0.747-0.587-1.747-1.24-2.107l-4.267-2.373c-0.307-0.173-0.733-0.253-1.173-0.253z"></path>
</symbol>
<symbol id="icon-key-square" viewBox="0 0 32 32">
<path fill="none" stroke-linejoin="round" stroke-linecap="butt" stroke-miterlimit="4" stroke-width="2" d="M20 29.333c6.667 0 9.333-2.667 9.333-9.333v-8c0-6.667-2.667-9.333-9.333-9.333h-8c-6.667 0-9.333 2.667-9.333 9.333v8c0 6.667 2.667 9.333 9.333 9.333h8z"></path>
<path fill="none" stroke-linejoin="round" stroke-linecap="butt" stroke-miterlimit="4" stroke-width="2" d="M16.133 19.52l-3.453 3.427c-0.24 0.267-0.733 0.427-1.107 0.373l-1.6-0.213c-0.52-0.067-1-0.573-1.080-1.093l-0.213-1.6c-0.053-0.347 0.12-0.84 0.36-1.093l3.427-3.44c-0.573-1.907-0.12-4.067 1.387-5.573 2.16-2.16 5.68-2.16 7.853 0 2.16 2.147 2.16 5.667 0 7.84-1.507 1.507-3.667 1.973-5.573 1.373z"></path>
<path fill="none" stroke-linejoin="round" stroke-linecap="round" stroke-miterlimit="4" stroke-width="2" d="M13.933 21.707l-1.147-1.147"></path>
<path fill="none" stroke-linejoin="round" stroke-linecap="round" stroke-miterlimit="4" stroke-width="2.6667" d="M17.853 14.267h0.013"></path>
</symbol>
<symbol id="icon-setting" viewBox="0 0 32 32">
<path d="M16 30.166c-0.899 0-1.808-0.199-2.508-0.614l-7.334-4.221c-2.992-2.015-3.174-2.326-3.174-5.483v-7.706c0-3.157 0.173-3.468 3.105-5.457l7.386-4.264c1.401-0.813 3.598-0.813 4.999 0l7.36 4.238c2.992 2.015 3.174 2.326 3.174 5.483v7.689c0 3.165-0.173 3.468-3.105 5.457l-7.386 4.264c-0.718 0.415-1.626 0.614-2.517 0.614zM16 3.823c-0.562 0-1.107 0.104-1.496 0.329l-7.334 4.247c-2.171 1.462-2.171 1.462-2.171 3.745v7.689c0 2.283 0 2.283 2.223 3.788l7.282 4.203c0.787 0.45 2.214 0.45 3.001 0l7.334-4.238c2.154-1.47 2.154-1.47 2.154-3.753v-7.689c0-2.283 0-2.283-2.223-3.788l-7.282-4.203c-0.389-0.225-0.934-0.329-1.488-0.329z"></path>
<path d="M16 20.999c-2.768 0-5.008-2.24-5.008-4.999 0-2.768 2.24-5.008 5.008-5.008 2.759 0 4.999 2.24 4.999 5.008 0 2.759-2.24 4.999-4.999 4.999zM16 12.999c-1.661 0-3.001 1.341-3.001 3.001 0 1.652 1.341 2.992 3.001 2.992 1.652 0 2.992-1.341 2.992-2.992 0-1.661-1.341-3.001-2.992-3.001z"></path>
</symbol>
<symbol id="icon-chevron-right" viewBox="0 0 20 20">
<path d="M9.163 4.516c0.418 0.408 4.502 4.695 4.502 4.695 0.223 0.219 0.335 0.504 0.335 0.789s-0.112 0.57-0.335 0.787c0 0-4.084 4.289-4.502 4.695-0.418 0.408-1.17 0.436-1.615 0-0.446-0.434-0.481-1.041 0-1.574l3.747-3.908-3.747-3.908c-0.481-0.533-0.446-1.141 0-1.576s1.197-0.409 1.615 0z"></path>
</symbol>
<symbol id="icon-search" viewBox="0 0 32 32">
<path fill="none" stroke-linejoin="round" stroke-linecap="butt" stroke-miterlimit="4" stroke-width="2.6667" d="M14.667 25.333c-5.893 0-10.667-4.787-10.667-10.667 0-5.893 4.773-10.667 10.667-10.667 5.88 0 10.667 4.773 10.667 10.667 0 5.88-4.787 10.667-10.667 10.667z"></path>
<path fill="none" stroke-linejoin="round" stroke-linecap="round" stroke-miterlimit="4" stroke-width="2.6667" d="M28 28l-5.8-5.8"></path>
</symbol>
</defs>
</svg>
